#!OML:ASF H:\Terrain\Patient Classification 1\Takeo\Monday\TakeoMonday.ASF
:FULLY-SPECIFIED
:DEGREES
420
root 8.27208 15.1942 -2.10258 27.6998 22.6417 6.6454
lowerback 38.0968 -1.50063 11.0724
upperback 12.4831 2.43901 0.254753
thorax -4.28136 1.60385 -6.30362
lowerneck -14.9408 -8.80629 -4.8184
upperneck -7.90186 -10.9864 5.52344
head 0.570558 -5.37432 1.97958
rclavicle -9.54166e-014 -1.74931e-014
rhumerus 53.8595 0.0643549 -41.7513
rradius 28.4988
rwrist 0.134301
rhand -35.4212 32.138
rfingers 7.12502
rthumb -8.5513 2.33111
lclavicle -9.54166e-014 -1.74931e-014
lhumerus -26.0489 -10.3807 90.2707
lradius 69.5189
lwrist 33.1536
lhand -29.9186 12.0643
lfingers 7.12502
lthumb -3.23885 42.0194
rfemur -76.2674 -12.365 16.2407
rtibia 69.5983
rfoot -17.7196 -12.6084
rtoes 4.57383
lfemur -66.7534 0.296968 -30.3376
ltibia 70.4962
lfoot -24.8266 10.1226
ltoes -10.0962
421
root 8.26734 15.1113 -2.11378 28.0906 22.7693 6.68432
lowerback 38.4295 -1.93385 11.7396
upperback 12.5702 2.15439 -0.212312
thorax -4.28249 1.5127 -7.04106
lowerneck -14.3095 -8.77091 -4.25991
upperneck -8.86675 -11.0231 5.83312
head 0.140989 -5.42229 2.03414
rclavicle 2.22639e-014 1.59028e-014
rhumerus 54.4073 -0.558515 -42.9551
rradius 27.8606
rwrist 0.905065
rhand -35.1772 31.9786
rfingers 7.12502
rthumb -8.31577 2.16225
lclavicle 2.22639e-014 1.59028e-014
lhumerus -26.0221 -10.3563 89.5658
lradius 69.537
lwrist 33.1927
lhand -30.2604 12.479
lfingers 7.12502
lthumb -3.56893 42.4288
rfemur -77.3555 -12.6067 16.4463
rtibia 70.522
rfoot -17.8413 -12.6071
rtoes 3.53122
lfemur -67.8427 0.122001 -30.3545
ltibia 71.5692
lfoot -24.8875 10.1969
ltoes -10.1903
422
root 8.26041 15.0298 -2.12183 28.6272 23.0186 6.89661
lowerback 38.4715 -2.03056 11.8978
upperback 12.8478 2.10154 -0.133755
thorax -3.98819 1.52429 -7.00861
lowerneck -14.448 -8.82307 -3.81392
upperneck -9.37508 -11.1548 5.41254
head -0.0543754 -5.50963 1.82828
rclavicle -2.54444e-014 -1.19271e-014
rhumerus 54.8994 -1.22253 -42.8184
rradius 27.6016
rwrist 0.875077
rhand -35.1557 31.9167
rfingers 7.12502
rthumb -8.29507 2.09959
lclavicle -2.54444e-014 -1.19271e-014
lhumerus -25.6778 -10.4917 89.5595
lradius 69.5674
lwrist 33.3674
lhand -30.4387 13.0237
lfingers 7.12502
lthumb -3.74112 42.9706
rfemur -78.5107 -12.9884 16.5179
rtibia 71.5391
rfoot -18.0661 -12.532
rtoes 2.3635
lfemur -68.9517 -0.276 -30.4381
ltibia 72.6282
lfoot -24.8374 10.4806
ltoes -11.1311
423
root 8.2502 14.9431 -2.12143 29.1322 23.1101 7.20412
lowerback 38.6773 -2.01949 11.8102
upperback 13.121 2.11683 -0.0118836
thorax -3.75634 1.55541 -6.83044
lowerneck -14.9193 -8.9176 -3.86326
upperneck -9.42737 -11.2642 5.21712
head -0.00421659 -5.56089 1.74991
rclavicle 5.725e-014 1.59028e-015
rhumerus 55.459 -1.90652 -42.6251
rradius 27.309
rwrist 0.949497
rhand -35.1443 32.0926
rfingers 7.12502
rthumb -8.28402 2.275
lclavicle 5.725e-014 1.59028e-015
lhumerus -25.2978 -10.7759 89.6011
lradius 69.6254
lwrist 33.5909
lhand -30.5422 13.1431
lfingers 7.12502
lthumb -3.84104 43.0882
rfemur -79.5806 -13.2743 16.4087
rtibia 72.5415
rfoot -18.3409 -12.3171
rtoes 2.91441
lfemur -69.867 -0.556681 -30.6676
ltibia 73.5343
lfoot -24.9752 10.6299
ltoes -11.0258
424
root 8.23973 14.8633 -2.11309 29.2312 23.1485 7.4677
lowerback 39.5742 -2.09475 11.2237
upperback 13.1481 1.99577 0.542522
thorax -4.07254 1.44345 -5.89739
lowerneck -14.6135 -8.98904 -5.34978
upperneck -9.63212 -11.1473 5.5412
head -0.0125949 -5.45808 2.12287
rclavicle -6.04305e-014 3.97569e-014
rhumerus 56.4396 -1.49491 -41.6417
rradius 27.0964
rwrist 1.05669
rhand -35.4155 32.1093
rfingers 7.12502
rthumb -8.54579 2.3022
lclavicle -6.04305e-014 3.97569e-014
lhumerus -25.4458 -9.5888 90.4263
lradius 69.5594
lwrist 33.1741
lhand -30.3774 12.9203
lfingers 7.12502
lthumb -3.68193 42.8682
rfemur -80.1882 -13.4719 16.2579
rtibia 73.5662
rfoot -18.7682 -12.2616
rtoes 2.99124
lfemur -70.2709 -0.692502 -30.8715
ltibia 74.4345
lfoot -25.4827 10.4993
ltoes -10.3829
425
root 8.17469 14.8758 -2.05497 27.4077 22.8808 7.19446
lowerback 42.4672 -1.6542 10.8966
upperback 13.2933 2.77378 0.553338
thorax -4.66755 1.78568 -6.00873
lowerneck -13.9536 -9.25114 -4.40213
upperneck -10.3249 -11.6581 5.61305
head -0.372302 -5.76399 2.00914
rclavicle 6.36111e-014 2.8625e-014
rhumerus 55.7184 -2.72103 -41.7735
rradius 26.8717
rwrist 1.55102
rhand -36.1005 32.2827
rfingers 7.12502
rthumb -9.20683 2.50368
lclavicle 6.36111e-014 2.8625e-014
lhumerus -25.4226 -11.0931 90.1511
lradius 69.5202
lwrist 33.1501
lhand -30.2009 13.2923
lfingers 7.12502
lthumb -3.51147 43.2432
rfemur -78.2774 -12.5366 16.0374
rtibia 74.4025
rfoot -19.7819 -12.7634
rtoes 1.7874
lfemur -68.4293 0.459528 -30.5877
ltibia 75.1284
lfoot -26.4065 10.0667
ltoes -10.9299
426
root 8.16979 14.7302 -2.08117 28.9957 23.3063 7.69273
lowerback 41.348 -1.69345 11.5559
upperback 13.2657 2.80108 0.207993
thorax -4.31491 1.85086 -6.71429
lowerneck -13.6242 -9.41718 -3.40567
upperneck -10.8277 -12.0187 5.6744
head -0.628856 -5.99356 1.88134
rclavicle -2.54444e-014 5.56597e-015
rhumerus 55.0717 -3.76919 -42.0952
rradius 26.8749
rwrist 1.62729
rhand -36.343 32.7201
rfingers 7.12502
rthumb -9.44073 2.95151
lclavicle -2.54444e-014 5.56597e-015
lhumerus -25.4497 -12.3016 89.6834
lradius 69.7185
lwrist 33.1811
lhand -29.7876 14.0156
lfingers 7.12502
lthumb -3.11233 43.9726
rfemur -80.8967 -13.2549 16.1588
rtibia 75.6486
rfoot -19.4679 -13.0421
rtoes 1.17459
lfemur -70.8356 -0.565252 -30.8686
ltibia 76.1944
lfoot -26.2126 10.4006
ltoes -11.0314
427
root 8.16133 14.6183 -2.08296 29.9192 23.4264 8.53259
lowerback 41.1503 -1.93306 10.6137
upperback 13.6447 2.17898 0.597629
thorax -4.00776 1.55309 -5.58654
lowerneck -14.3048 -9.32235 -4.81012
upperneck -11.027 -11.6583 5.95998
head -0.498273 -5.7509 2.19333
rclavicle -7.95139e-014 -1.43125e-014
rhumerus 56.6991 -3.13469 -40.8265
rradius 26.9389
rwrist 1.13398
rhand -36.2338 32.5715
rfingers 7.12502
rthumb -9.33542 2.79824
lclavicle -7.95139e-014 -1.43125e-014
lhumerus -24.8328 -10.1721 90.2217
lradius 69.695
lwrist 32.7079
lhand -29.4872 14.3678
lfingers 7.12502
lthumb -2.82221 44.3288
rfemur -82.4339 -13.8318 15.618
rtibia 76.9323
rfoot -19.6363 -13.0297
rtoes 1.46837
lfemur -71.9783 -1.27793 -31.5291
ltibia 77.1496
lfoot -26.4676 10.5824
ltoes -10.244
428
root 8.1654 14.502 -2.08225 30.4926 23.5071 9.0679
lowerback 41.4115 -2.03039 10.8048
upperback 13.5848 2.16459 0.470824
thorax -4.13614 1.55251 -5.81462
lowerneck -14.0612 -9.47314 -4.37869
upperneck -11.2196 -11.949 5.65909
head -0.634147 -5.92157 2.0292
rclavicle 9.54166e-015 -4.92986e-014
rhumerus 56.4156 -3.32279 -39.9854
rradius 26.8168
rwrist 1.04395
rhand -36.788 32.2709
rfingers 7.12502
rthumb -9.87009 2.52222
lclavicle 9.54166e-015 -4.92986e-014
lhumerus -24.7472 -10.3452 90.2453
lradius 69.4506
lwrist 32.6413
lhand -29.5755 14.0213
lfingers 7.12502
lthumb -2.90749 43.9813
rfemur -83.7646 -14.2606 15.2816
rtibia 78.3041
rfoot -19.8608 -13.0512
rtoes 0.102028
lfemur -72.9381 -1.90122 -31.8877
ltibia 78.2589
lfoot -26.9995 10.8082
ltoes -9.94851
429
root 8.17633 14.3821 -2.09164 31.2814 23.611 9.4348
lowerback 41.1649 -2.19623 10.8288
upperback 13.781 1.96117 0.653371
thorax -3.87683 1.47335 -5.55027
lowerneck -14.6752 -9.59921 -4.9366
upperneck -10.9175 -12.0305 5.45021
head -0.418164 -5.93484 2.0088
rclavicle -1.27222e-014 9.54166e-015
rhumerus 57.1477 -3.47267 -39.4972
rradius 26.7864
rwrist 1.08265
rhand -37.2903 32.6197
rfingers 7.12502
rthumb -10.3547 2.89465
lclavicle -1.27222e-014 9.54166e-015
lhumerus -24.234 -9.719 90.5827
lradius 69.0515
lwrist 32.5153
lhand -29.1454 13.2886
lfingers 7.12502
lthumb -2.49211 43.2538
rfemur -85.4251 -14.6476 15.1572
rtibia 79.5508
rfoot -19.9245 -13.1919
rtoes -0.938808
lfemur -74.2908 -2.58585 -32.0808
ltibia 79.3489
lfoot -27.3485 11.0771
ltoes -9.87888
430
root 8.17532 14.2822 -2.09473 31.7533 23.8768 9.32738
lowerback 41.0841 -2.36199 11.3242
upperback 13.8358 1.93972 0.684638
thorax -3.76218 1.48615 -5.753
lowerneck -14.6883 -9.64313 -4.95316
upperneck -10.9151 -12.0929 5.39427
head -0.41589 -5.96731 1.98934
rclavicle -2.22639e-014 1.47101e-014
rhumerus 57.3209 -3.93286 -39.9106
rradius 26.5949
rwrist 1.9137
rhand -37.2763 33.1525
rfingers 7.12502
rthumb -10.3412 3.42673
lclavicle -2.22639e-014 1.47101e-014
lhumerus -24.1167 -9.8878 90.5212
lradius 68.9784
lwrist 32.5856
lhand -28.6215 12.8679
lfingers 7.12502
lthumb -1.98612 42.8384
rfemur -86.6809 -14.7142 15.3726
rtibia 80.7006
rfoot -20.4265 -13.1833
rtoes 0.0377554
lfemur -75.5829 -2.98917 -31.7638
ltibia 80.4543
lfoot -27.3544 11.3367
ltoes -10.1428
